<svg width="2273" height="618" xmlns="http://www.w3.org/2000/svg" xmlns:xlink="http://www.w3.org/1999/xlink" xml:space="preserve" overflow="hidden"><defs><clipPath id="clip0"><rect x="1072" y="305" width="2273" height="618"/></clipPath></defs><g clip-path="url(#clip0)" transform="translate(-1072 -305)"><path d="M1634 640.981C1634 565.313 1604.04 496.685 1555.4 446.172L1407.04 606.832C1422.15 630.719 1420.09 662.635 1400.01 684.391 1376.04 710.345 1335.56 711.968 1309.6 687.993 1283.65 664.018 1282.02 623.539 1306 597.584 1325.73 576.222 1356.6 571.389 1381.39 583.681L1529.98 422.78C1486.19 387.223 1431.51 364.63 1371.71 360.685 1371.75 360.672 1371.77 360.66 1371.81 360.647 1371.32 360.609 1370.82 360.622 1370.33 360.596 1364.59 360.241 1358.82 360 1353 360 1343.3 360 1333.72 360.495 1324.27 361.446 1314.82 362.41 1305.52 363.831 1296.37 365.708 1278.08 369.45 1260.43 374.969 1243.62 382.085 1226.82 389.189 1210.84 397.891 1195.89 407.989 1177.2 420.611 1160.11 435.427 1144.99 452.058 1138.94 458.705 1133.21 465.656 1127.82 472.874 1117.03 487.298 1107.6 502.799 1099.71 519.176 1094.45 530.073 1089.95 541.401 1086.12 553.021 1083.86 559.871 1081.84 566.835 1080.12 573.913 1074.85 595.415 1072 617.868 1072 641.006L1072 641.006C1072 665.261 1075.07 688.792 1080.84 711.233 1092.39 756.126 1114.76 796.669 1144.99 829.942 1154.06 839.926 1163.84 849.25 1174.25 857.838 1181.19 863.559 1188.4 868.962 1195.88 874.011 1201.76 877.982 1207.85 881.686 1214.04 885.213 1217.89 887.407 1221.78 889.513 1225.74 891.517 1263.95 910.976 1307.17 922 1352.99 922 1354.65 922 1356.3 921.975 1357.95 921.937 1362.15 921.848 1366.32 921.658 1370.48 921.404 1370.92 921.378 1371.37 921.391 1371.8 921.353 1371.76 921.34 1371.72 921.328 1371.69 921.302 1518.15 911.674 1634 789.895 1634 640.994Z" fill="#C74325" fill-rule="evenodd"/><path d="M1128 473C1133.34 465.719 1139.01 458.719 1145 452 1139.01 458.706 1133.34 465.719 1128 473Z" fill="#DA4C2A" fill-rule="evenodd"/><path d="M1086 553C1089.95 541.327 1094.59 529.947 1100 519 1094.59 529.947 1089.95 541.327 1086 553Z" fill="#DA4C2A" fill-rule="evenodd"/><path d="M1100 519C1107.86 502.73 1117.26 487.329 1128 473 1117.26 487.329 1107.86 502.73 1100 519Z" fill="#DA4C2A" fill-rule="evenodd"/><path d="M1196 874C1188.4 868.693 1181.06 863.013 1174 857 1181.06 863.013 1188.4 868.693 1196 874Z" fill="#DA4C2A" fill-rule="evenodd"/><path d="M1145 830C1114.83 796.658 1092.52 756.003 1081 711 1092.52 756.003 1114.84 796.658 1145 830Z" fill="#DA4C2A" fill-rule="evenodd"/><path d="M1080.26 574C1074.91 595.452 1072 617.853 1072 640.937 1072 664.021 1075.12 688.599 1081 711 1075.12 688.612 1072 665.135 1072 640.937 1072 616.739 1074.91 595.464 1080.26 574Z" fill="#DA4C2A" fill-rule="evenodd"/><path d="M1353 360C1358.71 360 1364.37 360.404 1370 361 1364.37 360.404 1358.71 360 1353 360Z" fill="#DA4C2A" fill-rule="evenodd"/><path d="M1214 885C1255.13 908.502 1302.7 922 1353.44 922 1359.34 922 1365.18 921.758 1371 921.4 1365.19 921.758 1359.35 922 1353.44 922 1302.7 922 1255.13 908.502 1214 885Z" fill="#DA4C2A" fill-rule="evenodd"/><path d="M1372 361.571C1371.33 361.143 1370.67 361.286 1370 361 1370.62 361.286 1371.25 361.714 1371.86 362.002 1371.91 361.859 1371.95 361.714 1372 361.571Z" fill="#BB311E" fill-rule="evenodd"/><path d="M1214 885C1207.87 881.537 1201.83 877.912 1196 874 1201.83 877.899 1207.87 881.537 1214 885Z" fill="#BB311E" fill-rule="evenodd"/><path d="M1372 921.574C1372 921.574 1371.94 921.286 1371.91 921 1371.61 921.286 1371.31 921.717 1371 922.002 1371.34 921.717 1371.67 921.859 1372 921.428Z" fill="#BB311E" fill-rule="evenodd"/><path d="M1296 366C1305.18 363.798 1314.53 362.131 1324 361 1314.51 362.131 1305.18 363.798 1296 366Z" fill="#BB311E" fill-rule="evenodd"/><path d="M1080 574C1081.74 566.885 1083.74 559.898 1086 553 1083.74 559.885 1081.73 566.885 1080 574Z" fill="#BB311E" fill-rule="evenodd"/><path d="M1196 408C1211.03 397.865 1227.1 389.13 1244 382 1227.1 389.13 1211.04 397.865 1196 408Z" fill="#BB311E" fill-rule="evenodd"/><path d="M1175.6 640.994C1175.6 512.123 1257.43 402.356 1372 360.685 1371.54 360.66 1371.07 360.621 1370.62 360.596 1364.88 360.241 1359.1 360 1353.27 360 1343.56 360 1333.97 360.495 1324.51 361.446 1315.05 362.41 1305.74 363.831 1296.59 365.708 1278.28 369.45 1260.61 374.969 1243.79 382.085 1226.96 389.189 1210.98 397.891 1196.01 407.989 1177.3 420.611 1160.2 435.427 1145.06 452.058 1139.01 458.705 1133.27 465.656 1127.87 472.874 1117.08 487.298 1107.63 502.799 1099.73 519.176 1094.48 530.073 1089.97 541.401 1086.13 553.021 1083.87 559.871 1081.85 566.835 1080.13 573.913 1074.86 595.415 1072 617.868 1072 641.006 1072 664.144 1075.07 688.792 1080.85 711.233 1092.41 756.126 1114.8 796.681 1145.06 829.942 1154.14 839.926 1163.93 849.25 1174.35 857.838 1181.29 863.559 1188.52 868.962 1195.99 874.011 1201.89 877.982 1207.98 881.673 1214.18 885.213 1255.2 908.579 1302.64 922 1353.26 922 1359.14 922 1364.97 921.759 1370.77 921.404 1371.17 921.378 1371.57 921.34 1371.97 921.315 1257.41 879.644 1175.59 769.877 1175.59 641.006Z" fill="#DA4C2A" fill-rule="evenodd"/><path d="M2176.8 660.611C2168.28 681.216 2147.98 695.729 2124.27 695.729 2092.89 695.729 2067.44 670.325 2067.44 638.994 2067.44 607.663 2092.89 582.258 2124.27 582.258 2147.98 582.258 2168.28 596.772 2176.8 617.376L2316 617.376 2316 497.282 2218.06 497.282 2218.06 524.358C2194.82 501.702 2163.28 489 2125.1 489 2042.1 489 1984 556.399 1984 639.272 1984 722.146 2042.1 789 2125.1 789 2163.84 789 2197.03 771.878 2218.06 748.665L2219.16 748.665 2219.16 780.705 2315.99 780.705 2315.99 660.624 2176.79 660.624Z" fill="#C74325" fill-rule="evenodd"/><path d="M1937.99 489C1882.08 489 1851.09 538.222 1851.09 538.222L1849.98 538.222 1849.98 497.303 1752 497.303 1752 781 1849.98 781 1849.98 631.685C1849.98 624.498 1857.18 574.173 1908.11 574.173 1940.77 574.173 1959.04 589.651 1959.04 589.651L2000 506.696C2000 506.696 1974.53 489 1938 489Z" fill="#C74325" fill-rule="evenodd"/><path d="M2726 448C2751.44 448 2773 425.955 2773 399.5 2773 373.045 2751.44 351 2726 351 2700.56 351 2679 373.045 2679 399.5 2679 425.955 2700.56 448 2726 448Z" fill="#C74325" fill-rule="evenodd"/><path d="M2549.22 524.05C2526.02 501.367 2494.53 488.649 2456.41 488.649 2381 488.649 2326.33 544.591 2317.08 617.181L2403.12 617.181C2411.63 596.551 2431.9 582.021 2455.58 582.021 2486.91 582.021 2512.31 607.456 2512.31 638.825 2512.31 670.194 2486.91 695.629 2455.58 695.629 2431.9 695.629 2411.63 681.098 2403.12 660.468L2317 660.468C2326.05 733.236 2380.81 789 2456.4 789 2495.07 789 2528.22 771.857 2549.21 748.616L2550.31 748.616 2550.31 780.695 2647 780.695 2647 305 2549.21 305 2549.21 524.05Z" fill="#C74325" fill-rule="evenodd"/><path d="M3258.71 601.711C3234.36 593.973 3214.45 589.553 3214.45 574.635 3214.45 561.375 3223.3 557.513 3244.87 557.513 3274.75 557.513 3307.94 575.192 3307.94 575.192L3340.03 511.099C3340.03 511.099 3299.63 489 3244.86 489 3170.16 489 3120.92 522.155 3120.92 580.156 3120.92 622.695 3149.7 642.59 3178.47 657.509 3210.55 674.086 3241.54 675.745 3241.54 696.185 3241.54 714.966 3224.93 716.625 3211.11 716.625 3179.57 716.625 3140.84 684.027 3140.84 684.027L3101 750.881C3101 750.881 3141.94 789 3210.55 789 3268.65 789 3345 775.74 3345 692.322 3345 634.308 3296.31 613.324 3258.68 601.711Z" fill="#C74325" fill-rule="evenodd"/><path d="M2675 490 2774 490 2774 781 2675 781Z" fill="#C74325" fill-rule="evenodd"/><path d="M2995.87 632.038C2995.87 687.855 2988.52 709.404 2947.5 709.404 2906.48 709.404 2899.13 687.855 2899.13 632.038L2899.13 490 2801 490 2801 655.804C2801 750.868 2841.06 789 2947.5 789 3053.94 789 3094 750.868 3094 655.804L3094 490 2995.87 490 2995.87 632.038Z" fill="#C74325" fill-rule="evenodd"/></g></svg>